<svg width="1121" height="795" viewBox="0 0 1121 795" fill="none" xmlns="http://www.w3.org/2000/svg">
<mask id="mask0_204_3" style="mask-type:luminance" maskUnits="userSpaceOnUse" x="-74" y="0" width="1195" height="795">
<path d="M1121 0H-74V795H1121V0Z" fill="white"/>
</mask>
<g mask="url(#mask0_204_3)">
<path d="M836.134 27.1438C882.369 22.6706 930.799 25.5376 973.515 43.9182C1007.48 58.4762 1035.33 84.705 1051.02 116.403C1068.88 150.054 1073.53 189.153 1065.88 225.914C1057.4 267.921 1035.76 306.431 1010.28 341.484C1012.67 329.529 1015.45 317.654 1017.86 305.699C1018.84 302.222 1017.77 298.766 1016.27 295.573C1010.97 312.917 1008.54 330.891 1004.3 348.478C1004.45 328.451 1000.3 308.749 998.98 288.864C1000.41 285.285 999.588 280.792 995.047 279.897C988.094 258.894 978.056 238.276 961.978 221.99C933.689 193.667 901.859 167.824 865.118 149.545C835.46 134.194 802.695 124.008 769.083 119.84C743.836 117.054 718.242 117.156 693.081 120.714C668.052 124.13 643.435 130.331 619.86 138.932C593.744 148.813 567.563 158.532 541.077 167.54C525.238 172.745 509.247 177.564 493.125 182.016C483.848 185.087 472.615 185.29 466.053 193.098C453.951 189.051 442.044 195.436 430.116 196.92C412.647 200.133 395.114 203.02 377.406 204.85C360.285 207.046 342.946 207.188 325.738 208.449C324.63 209.933 322.436 212.901 321.328 214.365C319.763 212.82 316.635 209.73 315.07 208.184C292.474 208.286 269.943 206.476 247.542 203.935C222.925 200.804 198.46 195.761 173.495 196.005C186.858 148.813 216.428 104.428 260.47 77.2634C299.883 52.5594 348.422 43.4709 395.309 45.0161C418.709 45.6871 442.001 48.5743 464.902 53.0475C521.414 63.8643 578.709 72.4649 636.504 73.2578C671.18 73.4002 706.617 71.4077 739.556 60.3875C754.613 55.5687 767.367 46.358 781.902 40.4616C799.002 33.1825 817.427 28.6687 836.134 27.1438Z" fill="#7CDC7D" stroke="#7CDC7D" stroke-width="0.125"/>
<path d="M693.081 120.714C718.241 117.156 743.836 117.054 769.083 119.84C772.408 123.276 776.449 126.854 775.732 131.958C775.406 283.862 775.688 435.766 775.623 587.67C775.602 618.27 775.319 648.87 775.927 679.451L775.319 680.935C774.428 681.138 772.647 681.545 771.756 681.728C765.107 683.354 758.524 685.184 751.854 686.709C750.811 686.953 748.703 687.441 747.639 687.706C741.099 689.149 734.494 690.349 727.867 691.426C726.78 691.609 724.629 691.975 723.543 692.158C717.177 693.033 710.811 694.354 704.38 694.334C702.663 693.948 699.208 693.175 697.492 692.809C697.144 512.033 697.449 331.236 697.383 150.46C696.927 140.518 699.86 129.376 693.081 120.714Z" fill="#6FBB40" stroke="#6FBB40" stroke-width="0.125"/>
<path d="M769.083 119.84C802.696 124.008 835.46 134.194 865.118 149.545C863.662 213.572 864.836 277.64 864.531 341.667C864.423 412.139 864.553 482.612 864.488 553.084C865.118 582.505 863.554 611.967 865.314 641.368C860.056 644.377 854.971 647.63 849.605 650.436C849.127 650.68 848.193 651.148 847.715 651.371C840.545 654.767 833.613 658.569 826.378 661.843C825.205 662.351 822.815 663.347 821.642 663.835C814.754 666.641 807.867 669.467 800.936 672.131C799.828 672.517 797.655 673.29 796.547 673.697C790.116 675.913 783.728 678.332 777.057 679.898L775.928 679.451C775.319 648.871 775.602 618.27 775.623 587.67C775.689 435.766 775.406 283.862 775.732 131.958C776.449 126.854 772.408 123.276 769.083 119.84Z" fill="#7EC140" stroke="#7EC140" stroke-width="0.125"/>
<path d="M619.86 138.932C643.434 130.331 668.051 124.13 693.081 120.714C699.86 129.376 696.927 140.518 697.383 150.46C697.448 331.236 697.144 512.033 697.492 692.809C699.208 693.175 702.663 693.948 704.379 694.334L703.858 694.415C702.815 694.558 700.751 694.863 699.708 695.025C693.342 695.798 686.889 695.94 680.501 696.225C679.415 696.266 677.286 696.347 676.199 696.388C669.833 696.51 663.489 696.55 657.123 696.388C657.166 696.123 657.21 695.615 657.253 695.351C653.386 695.493 649.562 695.696 645.738 695.859C641.935 695.676 638.198 695.29 634.439 694.944C633.44 694.863 631.441 694.659 630.442 694.578C627.856 694.273 625.292 693.968 622.728 693.622C620.186 680.732 621.577 667.637 621.403 654.625C621.121 507.6 621.533 360.556 621.251 213.532C620.251 188.685 623.445 163.636 619.86 138.932Z" fill="#62B741" stroke="#62B741" stroke-width="0.125"/>
<path d="M541.077 167.54C567.563 158.532 593.744 148.813 619.861 138.932C623.446 163.636 620.252 188.685 621.251 213.532C621.534 360.556 621.121 507.6 621.403 654.625C621.577 667.637 620.187 680.731 622.729 693.622C618.948 693.114 615.168 692.646 611.43 691.955C610.453 691.772 608.541 691.386 607.563 691.203C605.847 690.898 602.414 690.267 600.697 689.942C596.982 689.271 593.288 688.641 589.616 687.746C588.573 687.461 586.466 686.892 585.401 686.608C579.535 684.839 573.625 683.253 567.802 681.423C566.737 681.057 564.652 680.325 563.609 679.959C557.873 678.129 552.158 674.449 545.879 675.831C544.662 674.449 543.489 673.086 542.338 671.684C536.667 669.02 530.779 666.844 525.217 664.018C524.217 663.49 522.218 662.432 521.219 661.904C518.373 660.297 515.591 658.589 512.832 656.922C528.019 647.224 543.337 637.688 558.459 627.887C552.767 625.203 547.074 622.54 541.36 619.937C542.229 615.302 543.12 610.645 543.272 605.949C543.055 472.384 543.228 338.82 543.163 205.256C542.729 192.691 544.662 179.861 541.077 167.54Z" fill="#53B241" stroke="#53B241" stroke-width="0.125"/>
<path d="M865.118 149.545C901.859 167.824 933.689 193.667 961.978 221.99C978.056 238.276 988.094 258.894 995.047 279.897C994.765 283.231 995.286 287.298 998.98 288.864C1000.31 308.749 1004.45 328.451 1004.3 348.478C1003.89 356.449 1003.78 364.419 1003.54 372.389C1000.11 421.777 988.42 470.311 972.907 517.523C969.995 525.127 967.171 532.772 964.238 540.376C957.35 555.951 947.66 570.367 936.296 583.42C934.167 585.82 932.016 588.198 929.843 590.537C922.456 598.446 914.308 605.705 906.139 612.902C905.009 613.777 902.771 615.525 901.642 616.4C894.146 622.072 886.628 627.684 878.85 632.971C877.676 633.723 875.33 635.207 874.157 635.939C871.223 637.749 868.268 639.558 865.314 641.368C863.554 611.967 865.118 582.505 864.488 553.084C864.553 482.612 864.423 412.139 864.531 341.667C864.835 277.64 863.662 213.572 865.118 149.545Z" fill="#8DC63F" stroke="#8DC63F" stroke-width="0.125"/>
<path d="M493.125 182.016C509.247 177.564 525.238 172.745 541.077 167.54C544.662 179.861 542.729 192.691 543.163 205.256C543.228 338.821 543.055 472.385 543.272 605.949C543.12 610.645 542.229 615.302 541.36 619.937C526.216 613.065 511.007 606.294 495.885 599.361C498.34 586.755 497.167 573.925 497.34 561.217C497.362 477.854 497.471 394.491 497.319 311.128C497.036 299.01 499.187 286.505 494.624 274.855C498.731 261.496 497.253 247.507 497.275 233.824C497.558 228.883 495.059 224.45 493.56 219.875C498.188 208.042 501.143 193.077 493.125 182.016Z" fill="#49AE41" stroke="#49AE41" stroke-width="0.125"/>
<path d="M466.053 193.098C472.615 185.29 483.848 185.087 493.125 182.016C501.143 193.077 498.188 208.042 493.56 219.875C495.059 224.45 497.558 228.883 497.275 233.824C497.253 247.507 498.731 261.496 494.624 274.854C499.187 286.505 497.036 299.009 497.319 311.128C497.471 394.491 497.362 477.854 497.34 561.217C497.167 573.925 498.34 586.755 495.885 599.361C492.473 597.795 489.041 596.23 485.629 594.684C486.694 610.442 488.041 626.159 489.106 641.896C487.932 641.083 485.586 639.477 484.413 638.684C483.022 637.728 481.632 636.773 480.284 635.817C474.831 631.771 469.638 627.46 464.358 623.231C463.055 622.154 461.751 621.076 460.469 619.998C455.602 615.891 450.757 611.764 445.847 607.718C445.043 609.202 444.282 610.706 443.522 612.231C443.565 610.747 443.631 607.799 443.674 606.315C442.957 605.644 441.501 604.322 440.784 603.651C437.112 600.54 433.375 597.511 429.595 594.522C430.681 578.683 430.073 562.823 430.094 546.984C430.051 430.296 430.116 313.608 430.116 196.92C442.044 195.436 453.951 189.051 466.053 193.098Z" fill="#3EAA42" stroke="#3EAA42" stroke-width="0.125"/>
<path d="M145.033 197.754C154.484 196.798 163.957 195.944 173.495 196.005C198.46 195.761 222.925 200.804 247.542 203.935C246.39 217.293 248.346 230.652 247.52 244.03C247.629 333.758 247.412 423.485 247.585 513.212C242.74 512.643 237.873 512.094 233.028 511.484C231.92 511.342 229.682 511.037 228.574 510.894C222.534 510.101 216.494 509.207 210.475 508.251C209.432 508.068 207.303 507.722 206.26 507.56C199.829 506.462 193.419 505.262 187.01 504.124L183.946 503.514C177.906 502.334 171.888 501.033 165.891 499.63C164.848 499.386 162.784 498.898 161.741 498.674C157.982 497.8 154.223 497.007 150.465 496.194L150.508 495.848C151.312 491.212 152.051 486.577 152.203 481.88C152.072 389.143 152.246 296.427 152.138 203.691C149.769 201.719 147.401 199.726 145.033 197.754Z" fill="#109A43" stroke="#109A43" stroke-width="0.125"/>
<path d="M377.406 204.85C395.114 203.02 412.647 200.133 430.116 196.92C430.116 313.608 430.051 430.296 430.094 546.984C430.073 562.823 430.681 578.683 429.595 594.522C427.987 593.281 426.314 592.123 424.576 591.045C423.207 590.618 421.86 590.232 420.491 589.906C417.123 583.603 410.518 579.903 404.804 575.694C403.5 574.738 402.197 573.783 400.915 572.847C395.635 568.822 390.225 564.918 384.706 561.177C383.728 560.485 381.751 559.143 380.752 558.472C378.644 557.029 376.537 555.605 374.407 554.223C377.015 540.376 375.45 526.286 375.711 512.318C375.82 419.479 375.646 326.641 375.82 233.803C375.45 224.125 373.126 214.121 377.406 204.85Z" fill="#33A642" stroke="#33A642" stroke-width="0.125"/>
<path d="M49.563 249.988C71.7683 220.973 107.379 202.247 145.033 197.754C147.401 199.726 149.769 201.718 152.137 203.691C152.246 296.427 152.072 389.143 152.203 481.88C152.051 486.577 151.312 491.212 150.508 495.848C148.857 495.482 145.511 494.73 143.859 494.344C142.816 494.1 140.752 493.612 139.731 493.368C133.713 491.782 127.673 490.236 121.676 488.508C120.698 488.203 118.764 487.593 117.787 487.288C111.942 485.438 106.032 483.71 100.274 481.615C99.2316 481.229 97.1458 480.436 96.1028 480.05C64.9894 468.318 35.7445 448.331 20.883 419.479C4.4789 388.452 6.41265 351.915 16.0596 319.322C23.8814 295.024 33.7456 270.788 49.563 249.988Z" fill="#009444" stroke="#009444" stroke-width="0.125"/>
<path d="M247.542 203.935C269.943 206.476 292.474 208.286 315.07 208.184C316.635 209.73 319.763 212.82 321.328 214.365C322.436 212.901 324.63 209.933 325.738 208.449C326.477 208.733 327.954 209.323 328.693 209.608C327.259 212.413 325 215.118 325.173 218.412C325.369 229.655 326.086 240.879 325.717 252.123C326.064 257.633 321.806 262.045 321.11 267.372C322.696 268.084 325.869 269.548 327.433 270.28C323.87 286.403 326.325 302.832 325.651 319.139C325.521 376.049 325.89 432.98 325.608 489.911C325.412 502.599 326.564 515.347 324.522 527.953L322.175 527.079C321.176 526.713 319.198 526.001 318.221 525.635C312.376 523.805 306.401 522.341 300.448 520.959C299.318 520.715 297.08 520.227 295.95 519.983C290.062 518.722 284.131 517.726 278.156 516.953C277.091 516.811 274.94 516.526 273.875 516.384C267.466 515.53 261.056 514.818 254.647 514.046L251.735 513.7C250.714 513.578 248.628 513.334 247.585 513.212C247.411 423.485 247.629 333.758 247.52 244.03C248.346 230.652 246.39 217.293 247.542 203.935Z" fill="#1E9F43" stroke="#1E9F43" stroke-width="0.125"/>
<path d="M325.738 208.449C342.946 207.188 360.285 207.046 377.406 204.85C373.125 214.121 375.45 224.125 375.82 233.803C375.646 326.641 375.82 419.479 375.711 512.318C375.45 526.286 377.015 540.376 374.407 554.223C371.061 552.088 367.694 550.034 364.304 547.981C363.326 547.391 361.371 546.212 360.393 545.642C354.896 542.369 349.334 539.197 343.598 536.351C342.599 535.863 340.578 534.887 339.557 534.399C334.625 532.101 329.606 529.946 324.522 527.953C326.564 515.347 325.412 502.599 325.608 489.911C325.89 432.98 325.521 376.049 325.651 319.139C326.325 302.832 323.87 286.403 327.433 270.28C325.869 269.548 322.696 268.084 321.11 267.372C321.806 262.045 326.064 257.633 325.717 252.123C326.086 240.879 325.369 229.655 325.173 218.411C325 215.118 327.259 212.413 328.693 209.608C327.954 209.323 326.477 208.733 325.738 208.449Z" fill="#29A343" stroke="#29A343" stroke-width="0.125"/>
<path d="M995.047 279.897C999.588 280.792 1000.41 285.285 998.98 288.864C995.286 287.298 994.765 283.231 995.047 279.897Z" fill="#3E583B" stroke="#3E583B" stroke-width="0.125"/>
<path d="M1004.3 348.478C1008.54 330.891 1010.97 312.917 1016.27 295.573C1017.77 298.766 1018.84 302.222 1017.86 305.699C1015.45 317.654 1012.67 329.529 1010.28 341.484C1008.04 351.793 1006.11 362.162 1003.54 372.389C1003.78 364.419 1003.89 356.449 1004.3 348.478Z" fill="#231F20" stroke="#231F20" stroke-width="0.125"/>
<path d="M1035 314.869C1036.63 317.309 1038.65 319.83 1037.37 322.9C1009.71 454.167 981.989 585.413 954.222 716.639C953.874 720.116 951.658 722.657 948.333 724.182C969.17 624.024 990.658 523.988 1011.67 423.851C1019.56 387.537 1026.55 351.061 1035 314.869Z" fill="#231F20" stroke="#231F20" stroke-width="0.125"/>
<path d="M1052.52 340.427C1054.15 343.355 1056.25 346.425 1054.88 349.881C1030.55 465.065 1006.26 580.269 981.859 695.432C981.555 699.234 978.687 701.898 975.753 704.256C1001.09 582.932 1026.88 461.69 1052.52 340.427Z" fill="#231F20" stroke="#231F20" stroke-width="0.125"/>
<path d="M1063.73 396.646C1064.88 390.953 1066.05 385.26 1067.88 379.709C1068.94 384.609 1070.11 389.652 1068.66 394.613C1049.34 485.275 1030.46 576.019 1011.06 666.661C1010.63 670.464 1007.5 672.964 1004.89 675.567C1024.4 582.587 1044.22 489.647 1063.73 396.646Z" fill="#231F20" stroke="#231F20" stroke-width="0.125"/>
<path d="M1074.33 459.433C1072.48 475.17 1072.01 491.09 1068.16 506.563C1060.16 541.84 1055.19 577.93 1041.41 611.804C1051.6 564.348 1061.51 516.831 1071.57 469.335C1072.29 466 1073.29 462.706 1074.33 459.433Z" fill="#231F20" stroke="#231F20" stroke-width="0.125"/>
<path d="M96.1027 480.05C97.1456 480.436 99.2314 481.229 100.274 481.616C97.9278 491.7 96.4069 501.989 93.6475 511.992H91.6052C89.2152 501.399 95.1033 490.684 96.1027 480.05Z" fill="#231F20" stroke="#231F20" stroke-width="0.125"/>
<path d="M117.787 487.288C118.764 487.593 120.698 488.203 121.676 488.508C118.829 504.876 115.266 521.182 111.377 537.387C110.53 536.33 108.878 534.256 108.031 533.219C111.507 517.95 114.527 502.599 117.787 487.288Z" fill="#231F20" stroke="#231F20" stroke-width="0.125"/>
<path d="M139.731 493.368C140.752 493.612 142.817 494.1 143.859 494.344C139.514 514.168 136.168 534.195 130.867 553.816C130.215 552.576 128.911 550.136 128.259 548.916C131.562 530.312 135.951 511.891 139.731 493.368Z" fill="#231F20" stroke="#231F20" stroke-width="0.125"/>
<path d="M161.741 498.674C162.784 498.898 164.848 499.386 165.891 499.63C161.437 521.447 156.852 543.243 152.159 565.019C149.313 563.596 147.705 561.908 149.052 558.879C153.332 538.811 157.526 518.743 161.741 498.674Z" fill="#231F20" stroke="#231F20" stroke-width="0.125"/>
<path d="M183.946 503.514L187.01 504.124L187.835 505.343C183.164 528.299 178.449 551.275 173.256 574.149C172.409 573.457 170.736 572.054 169.889 571.363C174.082 548.672 179.231 526.123 183.946 503.514Z" fill="#231F20" stroke="#231F20" stroke-width="0.125"/>
<path d="M206.26 507.56C207.303 507.722 209.432 508.068 210.475 508.251C205.348 531.979 200.828 555.849 195.266 579.516C194.223 579.618 192.159 579.842 191.116 579.943C195.94 555.768 201.176 531.674 206.26 507.56Z" fill="#231F20" stroke="#231F20" stroke-width="0.125"/>
<path d="M228.574 510.894C229.682 511.037 231.92 511.342 233.028 511.484C227.553 535.984 223.099 560.709 217.167 585.108C216.168 585.27 214.125 585.596 213.126 585.758C217.884 560.729 223.664 535.903 228.574 510.894Z" fill="#231F20" stroke="#231F20" stroke-width="0.125"/>
<path d="M251.735 513.7L254.647 514.046C255.624 517.258 254.016 520.593 253.625 523.805C248.498 545.887 244.761 568.273 239.198 590.232L235.418 591.513C237.591 575.552 241.806 559.896 244.848 544.077C247.281 533.972 248.476 523.602 251.735 513.7Z" fill="#231F20" stroke="#231F20" stroke-width="0.125"/>
<path d="M273.875 516.384C274.94 516.526 277.091 516.811 278.156 516.953C272.659 543.121 267.053 569.269 261.708 595.477C260.6 595.355 258.405 595.091 257.319 594.949C262.86 568.76 268.335 542.572 273.875 516.384Z" fill="#231F20" stroke="#231F20" stroke-width="0.125"/>
<path d="M964.238 540.376C967.171 532.772 969.996 525.127 972.907 517.523C958.415 589.052 942.663 660.379 927.866 731.868C927.606 735.69 925.455 738.74 921.783 740.529C932.038 689.474 943.271 638.582 953.917 587.588C957.481 571.871 960.153 555.971 964.238 540.376Z" fill="#231F20" stroke="#231F20" stroke-width="0.125"/>
<path d="M295.95 519.983C297.08 520.227 299.318 520.715 300.448 520.959C295.711 543.975 290.692 566.951 286.043 589.988C285.26 593.749 284.131 597.45 282.523 600.987C280.046 598.446 280.372 595.111 281.045 592.021C285.825 568.781 291.192 545.622 295.537 522.321L295.95 519.983Z" fill="#231F20" stroke="#231F20" stroke-width="0.125"/>
<path d="M264.076 656.638C261.578 610.279 273.68 563.779 295.537 522.321C291.192 545.622 285.825 568.781 281.045 592.021C280.372 595.111 280.046 598.446 282.523 600.987C284.13 597.45 285.26 593.749 286.043 589.988C290.692 566.951 295.711 543.975 300.448 520.959C306.401 522.341 312.376 523.805 318.221 525.635C313.462 548.387 308.704 571.139 303.772 593.851C302.925 597.429 303.098 601.089 303.663 604.688C306.336 600.723 308.139 596.311 308.878 591.675C313.028 570.082 318.155 548.672 322.175 527.079L324.521 527.953C329.606 529.946 334.625 532.101 339.557 534.399C334.69 558.269 329.149 582.038 324.782 606.01C330.018 605.989 329.541 600.845 330.714 597.694C334.929 577.219 339.253 556.785 343.598 536.351C349.334 539.197 354.896 542.369 360.393 545.642C356.156 566.809 350.855 587.812 347.509 609.12C350.073 608.023 352.419 606.416 352.593 603.57C356.569 585.047 360.306 566.483 364.304 547.981C367.694 550.034 371.061 552.088 374.407 554.223C376.537 555.605 378.644 557.029 380.752 558.472C377.123 576.141 373.386 593.81 369.649 611.479C370.714 611.682 372.8 612.13 373.864 612.353C377.536 595.294 381.034 578.215 384.706 561.177C390.225 564.918 395.635 568.822 400.915 572.847C398.242 587.365 394.223 601.719 392.18 616.339C392.897 617.274 394.353 619.124 395.092 620.039C398.916 605.379 401.458 590.455 404.804 575.694C410.518 579.903 417.123 583.603 420.491 589.906C418.427 600.845 415.646 611.642 413.668 622.581C412.756 625.265 414.755 627.42 416.124 629.575C419.643 616.867 422.077 603.936 424.576 591.045C426.314 592.123 427.987 593.281 429.595 594.522C433.375 597.511 437.112 600.54 440.784 603.651C438.416 614.834 436.156 626.037 433.592 637.179C434.505 638.135 436.308 640.026 437.221 640.961C439.502 631.425 441.284 621.767 443.522 612.231C444.282 610.706 445.043 609.202 445.847 607.718C450.757 611.764 455.602 615.891 460.469 619.998C458.731 629.311 456.189 638.501 454.755 647.874C453.929 650.456 456.015 652.449 457.297 654.503C460.165 644.194 461.86 633.621 464.358 623.231C469.638 627.46 474.831 631.771 480.284 635.817C478.481 645.475 475.374 654.991 474.744 664.811C475.439 665.868 476.786 667.963 477.46 669.02C480.263 658.996 481.892 648.748 484.413 638.684C485.586 639.477 487.932 641.083 489.106 641.896C490.062 651.392 490.583 660.928 491.648 670.443C494.32 668.674 496.993 666.926 499.687 665.197C494.929 670.301 492.104 678.8 497.232 684.534C499.404 677.702 500.838 670.687 502.033 663.652C505.618 661.375 509.247 659.179 512.832 656.922C515.591 658.589 518.372 660.297 521.219 661.904C519.133 673.168 515.656 684.249 514.57 695.635C515.2 696.794 516.482 699.071 517.112 700.21C520.48 688.295 522.37 676.055 525.216 664.018C530.779 666.844 536.667 669.02 542.337 671.684C539.317 685.306 536.623 698.99 533.473 712.592C534.776 713.65 536.08 714.687 537.405 715.744C540.23 702.447 542.946 689.109 545.879 675.831C552.158 674.449 557.872 678.129 563.608 679.959C560.806 694.7 557.155 709.299 554.483 724.04C553.505 727.008 555.004 729.631 556.786 731.99C561.088 715.256 564.043 698.278 567.802 681.423C573.625 683.253 579.534 684.839 585.401 686.608C582.316 701.308 579.426 716.049 575.863 730.668C555.569 753.034 527.194 767.938 497.232 775.827C462.077 785.078 425.032 786.359 388.812 783.471C355.983 780.686 322.87 768.934 300.23 745.836C276.417 721.823 265.967 688.763 264.076 656.638Z" fill="#7CDC7D" stroke="#7CDC7D" stroke-width="0.125"/>
<path d="M318.221 525.635C319.199 526.001 321.176 526.713 322.175 527.079C318.156 548.672 313.028 570.082 308.878 591.675C308.139 596.311 306.336 600.723 303.664 604.688C303.099 601.089 302.925 597.429 303.772 593.851C308.704 571.139 313.463 548.387 318.221 525.635Z" fill="#231F20" stroke="#231F20" stroke-width="0.125"/>
<path d="M339.557 534.399C340.578 534.887 342.599 535.863 343.598 536.351C339.253 556.785 334.929 577.219 330.714 597.694C329.541 600.845 330.019 605.989 324.782 606.01C329.149 582.038 334.69 558.269 339.557 534.399Z" fill="#231F20" stroke="#231F20" stroke-width="0.125"/>
<path d="M347.509 609.121C350.855 587.812 356.156 566.809 360.393 545.643C361.371 546.212 363.326 547.391 364.304 547.981C360.306 566.483 356.569 585.047 352.593 603.57C352.419 606.416 350.073 608.023 347.509 609.121Z" fill="#231F20" stroke="#231F20" stroke-width="0.125"/>
<path d="M380.752 558.472C381.751 559.143 383.728 560.485 384.706 561.177C381.034 578.215 377.536 595.294 373.864 612.353C372.8 612.13 370.714 611.682 369.649 611.479C373.386 593.81 377.123 576.141 380.752 558.472Z" fill="#231F20" stroke="#231F20" stroke-width="0.125"/>
<path d="M400.915 572.847C402.197 573.783 403.5 574.738 404.804 575.694C401.458 590.455 398.916 605.379 395.092 620.039C394.353 619.124 392.897 617.274 392.18 616.339C394.223 601.719 398.242 587.365 400.915 572.847Z" fill="#231F20" stroke="#231F20" stroke-width="0.125"/>
<path d="M929.843 590.537C932.016 588.198 934.167 585.819 936.296 583.42C924.064 638.216 913.092 693.277 901.098 748.134C901.011 750.96 898.035 751.59 895.862 752.627C907.008 698.563 919.088 644.662 929.843 590.537Z" fill="#231F20" stroke="#231F20" stroke-width="0.125"/>
<path d="M420.491 589.906C421.86 590.232 423.207 590.618 424.576 591.045C422.077 603.936 419.644 616.867 416.124 629.575C414.755 627.42 412.756 625.264 413.669 622.581C415.646 611.642 418.427 600.845 420.491 589.906Z" fill="#231F20" stroke="#231F20" stroke-width="0.125"/>
<path d="M485.629 594.685C489.041 596.23 492.473 597.795 495.885 599.361C511.007 606.294 526.216 613.065 541.36 619.937C547.074 622.54 552.767 625.204 558.459 627.887C543.337 637.688 528.019 647.224 512.832 656.922C509.247 659.179 505.618 661.375 502.033 663.652L499.687 665.198C496.993 666.926 494.32 668.674 491.648 670.443C490.583 660.928 490.062 651.392 489.106 641.897C488.041 626.159 486.694 610.442 485.629 594.685ZM492.104 603.732C493.256 622.56 495.276 641.327 496.732 660.135C498.535 659.443 500.339 658.772 502.142 658.102L501.425 657.492C502.164 656.882 503.663 655.662 504.423 655.052C519.068 647 532.843 637.606 546.835 628.579C528.628 620.222 510.398 611.947 492.104 603.732Z" fill="white" stroke="white" stroke-width="0.125"/>
<path d="M440.784 603.651C441.501 604.322 442.957 605.644 443.674 606.315C443.631 607.799 443.565 610.747 443.522 612.231C441.284 621.767 439.502 631.425 437.221 640.961C436.308 640.026 434.505 638.135 433.593 637.179C436.156 626.037 438.416 614.834 440.784 603.651Z" fill="#231F20" stroke="#231F20" stroke-width="0.125"/>
<path d="M492.104 603.732C510.398 611.947 528.628 620.222 546.835 628.579C532.843 637.606 519.068 647 504.423 655.052C504.554 651.575 503.185 650.273 500.295 651.127C498.601 653.567 498.97 655.682 501.425 657.491L502.142 658.101C500.339 658.772 498.535 659.443 496.732 660.135C495.276 641.327 493.256 622.56 492.104 603.732Z" fill="#47AD41" stroke="#47AD41" stroke-width="0.125"/>
<path d="M901.642 616.399C902.771 615.525 905.009 613.777 906.139 612.902C897.47 659.606 886.519 705.964 877.155 752.566C876.003 756.633 876.308 762.488 870.593 763.342C880.588 714.3 891.039 665.34 901.642 616.399Z" fill="#231F20" stroke="#231F20" stroke-width="0.125"/>
<path d="M460.469 619.998C461.751 621.076 463.055 622.154 464.358 623.231C461.86 633.621 460.165 644.194 457.297 654.503C456.015 652.449 453.929 650.457 454.755 647.874C456.189 638.501 458.731 629.311 460.469 619.998Z" fill="#231F20" stroke="#231F20" stroke-width="0.125"/>
<path d="M874.157 635.939C875.33 635.207 877.676 633.723 878.85 632.97C870.658 675.872 860.794 718.489 852.147 761.309C851.082 765.335 851.213 770.56 845.955 772.024C854.254 726.48 864.944 681.321 874.157 635.939Z" fill="#231F20" stroke="#231F20" stroke-width="0.125"/>
<path d="M480.285 635.817C481.632 636.773 483.022 637.728 484.413 638.684C481.892 648.749 480.263 658.996 477.46 669.02C476.787 667.963 475.439 665.869 474.744 664.811C475.374 654.991 478.481 645.475 480.285 635.817Z" fill="#292D26" stroke="#292D26" stroke-width="0.125"/>
<path d="M500.295 651.127C503.185 650.273 504.554 651.575 504.423 655.052C503.663 655.662 502.164 656.881 501.425 657.491C498.97 655.682 498.601 653.567 500.295 651.127Z" fill="#2F3A2C" stroke="#2F3A2C" stroke-width="0.125"/>
<path d="M847.715 651.371C848.193 651.148 849.127 650.68 849.605 650.436L852.429 649.074C844.521 688.925 835.569 728.594 827.486 768.405C826.53 772.329 826.465 777.453 821.055 778.063C829.681 735.792 838.893 693.622 847.715 651.371Z" fill="#231F20" stroke="#231F20" stroke-width="0.125"/>
<path d="M521.219 661.904C522.218 662.432 524.217 663.49 525.216 664.018C522.37 676.055 520.48 688.295 517.112 700.21C516.482 699.071 515.2 696.794 514.57 695.635C515.656 684.249 519.133 673.168 521.219 661.904Z" fill="#231F20" stroke="#231F20" stroke-width="0.125"/>
<path d="M821.642 663.835C822.815 663.347 825.205 662.351 826.378 661.843C819.469 698.766 810.887 735.426 803.478 772.268C802.283 776.294 802.674 781.967 797.372 783.329C803.977 743.274 814.32 703.809 821.642 663.835Z" fill="#231F20" stroke="#231F20" stroke-width="0.125"/>
<path d="M499.687 665.198L502.033 663.652C500.838 670.687 499.404 677.702 497.232 684.534C492.104 678.8 494.929 670.301 499.687 665.198Z" fill="#2B3028" stroke="#2B3028" stroke-width="0.125"/>
<path d="M542.338 671.684C543.489 673.086 544.662 674.449 545.879 675.831C542.946 689.108 540.23 702.447 537.406 715.744C536.08 714.687 534.777 713.65 533.473 712.592C536.623 698.99 539.318 685.306 542.338 671.684Z" fill="#231F20" stroke="#231F20" stroke-width="0.125"/>
<path d="M796.547 673.696C797.655 673.29 799.828 672.517 800.936 672.131C796.525 698.238 790.137 724.04 784.966 750.025C782.228 761.452 780.621 773.143 777.362 784.468C776.297 784.834 774.168 785.586 773.125 785.952C780.534 748.459 789.051 711.169 796.547 673.696Z" fill="#231F20" stroke="#231F20" stroke-width="0.125"/>
<path d="M563.609 679.959C564.651 680.325 566.737 681.057 567.802 681.423C564.043 698.278 561.088 715.256 556.786 731.99C555.005 729.631 553.505 727.008 554.483 724.04C557.156 709.299 560.806 694.7 563.609 679.959Z" fill="#231F20" stroke="#231F20" stroke-width="0.125"/>
<path d="M771.756 681.728C772.647 681.545 774.428 681.138 775.319 680.935C775.993 684.31 774.993 687.685 774.363 690.999C767.171 722.718 761.348 754.721 753.766 786.318C752.701 786.643 750.593 787.253 749.551 787.558C756.699 752.241 764.477 717.025 771.756 681.728Z" fill="#231F20" stroke="#231F20" stroke-width="0.125"/>
<path d="M585.401 686.608C586.466 686.892 588.573 687.462 589.616 687.746C587.117 699.742 584.554 711.718 582.033 723.694C580.491 730.79 579.122 737.927 577.384 744.982C571.43 741.892 575.515 735.426 575.863 730.668C579.426 716.049 582.316 701.308 585.401 686.608Z" fill="#231F20" stroke="#231F20" stroke-width="0.125"/>
<path d="M589.616 687.746C593.288 688.641 596.982 689.271 600.697 689.942C596.156 701.938 589.681 713.202 582.033 723.694C584.554 711.718 587.117 699.742 589.616 687.746Z" fill="#7CDC7D" stroke="#7CDC7D" stroke-width="0.125"/>
<path d="M747.638 687.706C748.703 687.441 750.811 686.953 751.854 686.709C745.031 719.831 738.23 752.993 730.778 785.972C729.735 786.521 727.649 787.599 726.606 788.148C732.864 754.538 740.208 721.071 747.638 687.706Z" fill="#231F20" stroke="#231F20" stroke-width="0.125"/>
<path d="M607.563 691.203C608.54 691.386 610.452 691.772 611.43 691.955C607.845 713.568 602.718 734.999 598.111 756.47C592.788 754.518 595.678 749.455 596.026 745.877C599.98 727.659 603.826 709.441 607.563 691.203Z" fill="#231F20" stroke="#231F20" stroke-width="0.125"/>
<path d="M723.543 692.158C724.629 691.975 726.78 691.609 727.867 691.426C721.566 721.152 715.2 750.899 709.051 780.666C708.464 782.78 707.226 789.449 703.945 785.098C709.942 754.05 716.569 723.023 723.543 692.158Z" fill="#231F20" stroke="#231F20" stroke-width="0.125"/>
<path d="M630.442 694.578C631.441 694.659 633.44 694.863 634.439 694.944C629.377 718.53 624.64 742.176 619.339 765.721C613.842 764.684 616.753 759.378 617.014 756.165C621.751 735.69 625.227 714.951 630.442 694.578Z" fill="#231F20" stroke="#231F20" stroke-width="0.125"/>
<path d="M645.738 695.859C649.562 695.696 653.386 695.493 657.253 695.351C657.21 695.615 657.166 696.123 657.123 696.388C652.169 721.905 646.411 747.3 641.153 772.756C640.11 772.553 638.024 772.126 636.981 771.923C642.37 747.666 646.389 723.084 652.973 699.092C650.604 697.892 648.106 696.977 645.738 695.859Z" fill="#231F20" stroke="#231F20" stroke-width="0.125"/>
<path d="M699.708 695.025C700.751 694.863 702.815 694.558 703.858 694.415C697.948 723.633 691.886 752.871 685.325 781.967C684.304 782.455 682.261 783.39 681.24 783.858C686.498 754.111 693.255 724.568 699.708 695.025Z" fill="#231F20" stroke="#231F20" stroke-width="0.125"/>
<path d="M676.199 696.388C677.286 696.347 679.415 696.266 680.501 696.225C674.961 722.474 669.399 748.703 663.88 774.952C663.532 777.331 662.033 778.917 659.404 779.71C659.708 770.316 662.511 761.228 664.293 752.017C668.334 733.494 671.854 714.849 676.199 696.388Z" fill="#231F20" stroke="#231F20" stroke-width="0.125"/>
</g>
</svg>
