<?xml version="1.0" encoding="UTF-8" ?>
<!DOCTYPE svg PUBLIC "-//W3C//DTD SVG 1.1//EN" "http://www.w3.org/Graphics/SVG/1.1/DTD/svg11.dtd">
<svg width="414pt" height="414pt" viewBox="0 0 414 414" version="1.1" xmlns="http://www.w3.org/2000/svg">
<path fill="#ffffff" stroke="#ffffff" stroke-width="0.09375" opacity="1.00" d=" M 189.34 5.56 C 230.69 1.60 272.88 11.51 308.64 32.42 C 362.75 63.45 400.27 121.05 406.99 183.02 C 413.03 226.30 402.52 271.09 380.79 308.79 C 363.15 339.15 337.41 364.48 307.07 382.11 C 273.89 401.15 235.23 410.53 197.00 409.02 C 148.31 407.06 100.47 386.48 65.63 352.40 C 20.21 309.61 -2.14 244.39 5.44 182.65 C 10.44 142.71 27.56 104.41 54.15 74.16 C 87.79 34.59 137.72 9.96 189.34 5.56 M 196.33 16.43 C 169.60 18.78 143.14 26.28 120.02 40.04 C 84.62 60.31 57.09 93.08 41.57 130.66 C 38.85 137.27 35.90 143.94 34.93 151.08 C 36.41 150.87 36.26 148.95 36.87 147.92 C 40.06 138.13 44.75 128.86 49.95 120.00 C 72.70 78.52 113.44 48.15 158.93 35.90 C 206.28 23.09 258.99 30.40 300.76 56.27 C 337.86 78.60 366.06 115.24 378.26 156.78 L 379.09 157.07 C 378.59 151.11 376.38 145.38 374.46 139.76 C 361.17 100.48 335.05 65.42 300.01 42.99 C 269.43 23.54 232.53 13.63 196.33 16.43 M 196.22 40.13 C 195.96 40.40 195.43 40.94 195.16 41.21 C 195.10 49.70 193.84 58.69 196.20 66.89 C 199.90 66.92 207.31 66.98 211.01 67.01 C 216.31 69.77 218.59 63.81 217.01 60.07 C 212.89 59.13 207.45 61.67 204.10 58.80 C 203.32 51.31 219.88 61.72 214.88 51.21 C 212.23 48.08 206.72 52.06 204.10 48.85 C 206.14 43.00 220.59 51.94 216.89 41.23 C 211.05 38.14 202.83 40.83 196.22 40.13 M 173.33 43.45 C 169.86 45.04 165.07 43.56 162.06 46.18 C 162.95 53.40 165.33 60.44 166.46 67.66 C 166.96 69.30 167.18 72.83 169.71 71.68 C 175.83 69.85 183.48 70.37 187.84 64.85 C 192.15 58.55 189.38 49.65 184.25 44.75 C 181.30 42.01 176.87 43.11 173.33 43.45 M 241.17 44.07 C 237.97 50.51 236.64 57.79 234.53 64.67 C 234.14 66.30 233.12 68.92 235.27 69.67 C 241.58 70.99 247.65 73.25 253.83 74.95 C 255.09 73.12 257.49 69.84 254.77 68.21 C 251.23 66.99 247.53 66.29 244.10 64.80 C 243.31 62.08 246.83 61.37 248.70 62.36 C 250.96 62.83 254.13 65.44 255.87 62.77 C 259.97 53.93 246.85 59.25 246.95 53.02 C 251.41 52.46 255.43 55.28 259.81 54.90 C 260.64 53.12 261.35 51.20 260.90 49.20 C 254.49 47.03 247.86 44.78 241.17 44.07 M 269.20 55.14 C 261.15 59.76 265.85 70.31 272.88 73.17 C 274.87 76.64 269.10 77.23 268.61 74.32 C 267.57 70.76 263.37 69.17 260.00 68.96 C 260.03 71.95 259.69 75.14 261.21 77.84 C 265.52 81.27 270.77 85.17 276.70 83.73 C 280.27 82.16 284.47 78.04 282.22 73.89 C 281.01 68.92 273.36 67.47 273.98 61.94 C 278.43 62.00 279.18 67.72 283.27 68.72 C 285.74 70.09 287.80 67.40 286.98 65.05 C 284.49 58.07 276.55 53.42 269.20 55.14 M 129.30 59.27 C 121.25 62.29 116.58 72.45 122.00 80.00 C 125.44 87.18 135.55 89.68 141.82 84.85 C 149.93 80.72 150.16 68.18 143.31 62.69 C 140.03 58.13 134.19 58.74 129.30 59.27 M 295.22 67.15 C 293.80 68.43 292.72 70.02 292.11 71.83 C 293.31 72.92 295.70 75.09 296.90 76.18 C 294.43 81.87 288.94 85.61 286.00 91.05 C 287.18 93.75 290.14 95.61 292.81 96.89 C 296.69 92.38 299.68 87.11 304.21 83.15 C 307.06 82.50 308.76 87.00 311.66 85.75 C 312.53 83.98 314.64 82.41 313.85 80.22 C 309.78 76.55 305.02 73.74 301.01 69.99 C 299.39 68.83 297.62 66.19 295.22 67.15 M 105.31 77.27 C 99.62 80.28 94.87 85.11 90.96 89.99 C 96.57 96.55 102.17 103.59 109.00 109.05 C 110.22 107.99 112.65 105.86 113.87 104.80 C 115.39 100.91 108.60 100.10 110.19 96.24 C 112.06 92.86 116.35 93.62 118.30 96.69 C 120.97 100.36 124.79 95.21 126.03 93.01 C 124.52 90.13 121.63 87.84 118.69 86.43 C 117.43 85.86 115.10 85.78 115.11 83.95 C 115.18 79.43 109.78 75.16 105.31 77.27 M 190.35 80.52 C 181.12 81.49 171.86 84.42 165.19 91.19 C 153.94 102.04 151.16 118.22 149.19 133.06 C 146.94 173.32 148.43 213.69 147.99 254.01 C 149.18 273.24 149.06 293.55 157.76 311.24 C 164.38 324.23 178.91 331.16 192.99 332.02 C 197.95 333.31 203.43 329.13 203.03 324.02 C 202.95 302.37 203.07 280.71 202.97 259.06 C 197.07 258.81 191.15 259.20 185.26 258.81 C 178.76 254.37 181.50 245.60 180.96 238.99 C 180.74 233.70 181.74 228.49 182.24 223.25 C 186.56 217.58 194.79 221.00 200.76 219.90 C 203.12 210.81 202.06 201.27 200.94 192.07 C 195.19 191.15 188.62 193.49 183.27 190.72 C 180.74 185.60 181.22 179.53 180.96 174.01 C 181.20 168.11 180.28 161.93 182.28 156.25 C 187.16 149.97 196.32 154.22 202.94 152.97 C 203.08 131.98 203.00 110.98 202.97 89.99 C 204.65 83.07 196.29 78.00 190.35 80.52 M 238.33 80.40 C 227.23 83.26 222.45 95.66 218.37 105.21 C 205.93 141.37 204.37 180.10 204.99 218.01 C 206.55 249.30 208.98 281.29 220.24 310.84 C 223.77 319.08 227.82 328.87 237.07 331.98 C 247.44 333.69 252.72 322.84 255.80 314.85 C 269.97 279.04 265.12 239.59 266.02 202.00 C 264.46 199.29 268.64 191.74 263.96 191.04 C 255.66 190.92 247.36 190.95 239.07 191.04 C 238.92 208.95 238.94 226.89 239.10 244.81 C 242.48 246.78 249.83 245.88 247.00 253.00 C 247.79 256.41 245.63 263.00 241.05 261.98 C 238.03 261.04 235.48 258.65 234.35 255.69 C 225.75 235.85 226.59 213.48 227.43 192.33 C 229.19 179.58 229.43 165.27 237.70 154.71 C 240.87 150.08 247.23 152.34 251.83 150.85 C 252.99 149.52 252.59 147.63 252.91 146.02 C 253.16 130.35 252.91 114.67 253.02 98.99 C 252.94 94.74 253.19 90.33 251.74 86.25 C 247.69 83.52 243.83 78.90 238.33 80.40 M 318.28 87.23 C 313.22 93.18 304.31 96.53 303.19 105.01 C 304.75 111.16 308.62 117.25 315.08 118.97 C 324.27 120.67 328.93 110.71 335.92 106.83 C 336.82 103.23 332.48 101.60 330.82 99.08 C 325.44 102.42 321.41 107.75 316.00 111.00 C 313.30 110.27 310.82 108.30 312.21 105.25 C 316.09 100.72 321.95 98.11 325.01 92.91 C 324.95 90.08 321.20 86.41 318.28 87.23 M 84.36 96.27 C 81.68 100.25 79.10 104.32 76.00 108.00 C 74.56 110.31 71.32 112.63 72.11 115.79 C 73.64 116.88 75.21 117.92 76.82 118.88 C 78.89 117.68 80.40 112.45 83.33 114.61 C 88.58 117.14 92.17 122.75 97.91 124.05 C 98.93 122.32 100.98 118.86 102.00 117.13 C 97.06 113.34 91.80 109.97 87.11 105.85 C 88.15 103.76 90.73 101.84 89.79 99.26 C 88.28 97.90 86.78 95.03 84.36 96.27 M 340.28 114.28 C 333.46 118.62 326.19 122.20 319.24 126.31 C 319.80 130.83 324.10 134.77 326.02 138.99 C 331.23 148.86 347.91 143.66 350.02 134.01 C 351.22 126.38 345.83 119.99 341.81 114.12 C 341.43 114.16 340.66 114.24 340.28 114.28 M 292.31 121.33 C 277.13 127.29 271.92 144.42 269.19 159.07 C 266.31 182.82 269.37 206.86 267.40 230.65 C 265.85 250.43 267.97 270.19 268.04 289.96 C 274.94 290.07 281.86 290.11 288.77 289.86 C 289.04 289.59 289.59 289.04 289.87 288.77 C 290.31 270.59 289.68 252.40 290.14 234.23 C 292.81 230.85 298.42 234.30 301.94 232.91 C 308.23 230.49 313.46 225.24 315.96 218.99 C 321.20 206.48 322.59 192.73 322.44 179.28 C 322.00 162.06 320.01 143.65 309.73 129.26 C 305.58 124.13 299.41 119.04 292.31 121.33 M 67.20 122.15 C 65.08 124.00 63.96 126.95 64.14 129.73 C 67.24 131.61 71.75 132.24 73.94 134.87 C 69.60 136.81 64.66 135.66 60.23 137.23 C 58.65 139.40 56.76 142.01 57.09 144.82 C 60.49 147.49 64.90 148.35 68.68 150.37 C 72.63 151.98 76.44 154.94 80.83 154.93 C 82.63 152.83 84.72 148.21 81.06 146.93 C 79.09 145.02 73.68 145.61 74.00 142.11 C 78.25 141.56 82.49 140.96 86.77 140.76 C 88.67 139.23 89.65 136.95 90.62 134.78 C 90.81 131.69 87.13 131.14 84.97 130.08 C 78.83 127.95 73.34 123.88 67.20 122.15 M 114.32 124.33 C 105.66 127.52 102.39 137.24 98.85 144.92 C 92.69 164.35 90.48 184.75 89.02 204.99 C 90.58 229.46 91.56 254.80 101.38 277.68 C 104.59 285.29 111.40 293.94 120.69 292.70 C 127.41 289.78 132.47 283.63 134.68 276.70 C 141.42 260.66 143.22 243.10 144.81 225.93 C 144.86 223.33 146.36 219.75 143.76 218.13 C 138.97 219.02 132.11 215.93 128.22 219.23 C 127.32 227.21 126.81 236.06 121.71 242.65 C 119.96 243.57 118.39 245.63 116.20 244.87 C 110.66 240.59 109.56 233.30 108.09 226.95 C 106.50 216.05 106.46 204.91 107.99 194.02 C 108.63 187.06 109.62 179.73 113.94 173.98 C 116.03 170.98 120.55 171.71 122.77 174.22 C 127.33 179.76 126.14 187.87 129.16 193.90 C 134.43 194.08 139.70 194.11 144.98 193.97 C 145.29 188.05 143.72 182.23 143.42 176.34 C 141.02 159.29 138.41 140.68 126.91 127.08 C 123.18 124.61 118.89 122.82 114.32 124.33 M 346.33 147.37 C 338.73 148.49 331.73 156.22 334.95 164.02 C 335.61 177.23 356.09 179.25 361.36 168.32 C 366.53 158.76 357.74 144.40 346.33 147.37 M 54.17 154.08 C 51.71 158.58 51.79 164.24 50.01 169.06 C 49.79 170.89 47.79 173.69 50.26 174.72 C 58.48 176.29 66.44 179.37 74.82 179.92 C 76.56 173.35 78.43 166.79 79.78 160.11 C 77.94 158.54 75.56 157.57 73.12 158.05 C 72.22 161.58 71.66 165.21 70.73 168.74 C 70.15 170.51 67.92 170.23 67.11 168.81 C 67.43 165.87 68.53 163.08 68.93 160.16 C 67.23 158.94 65.30 157.71 63.11 157.97 C 61.62 161.07 62.29 165.25 59.86 167.89 C 56.13 166.90 58.98 162.13 59.57 159.66 C 62.90 154.81 57.16 153.65 54.17 154.08 M 345.27 180.29 C 341.06 181.74 338.76 186.70 339.95 191.01 C 339.34 195.58 341.29 202.60 346.66 203.47 C 350.83 205.09 355.69 201.93 356.57 197.67 C 358.12 195.51 356.52 188.44 360.99 188.97 C 360.96 190.40 361.37 192.10 360.21 193.22 C 357.90 195.51 359.82 199.19 360.16 201.96 C 364.61 202.66 366.72 197.46 367.95 193.95 C 368.29 188.97 366.54 179.82 360.02 179.97 C 353.25 178.04 350.54 185.98 349.93 191.00 C 351.01 198.38 347.84 194.25 346.18 192.77 C 345.54 189.87 350.06 188.14 348.80 185.09 C 348.00 182.98 348.76 178.52 345.27 180.29 M 55.24 184.40 C 49.38 185.46 45.33 192.19 46.98 198.00 C 45.49 207.83 58.08 213.21 65.93 209.89 C 74.12 208.01 76.73 197.27 73.70 190.27 C 71.33 187.25 68.15 184.40 64.20 184.09 C 59.46 188.80 66.31 192.90 68.00 197.00 C 66.27 202.58 58.25 202.98 54.10 199.83 C 51.95 194.23 60.97 192.15 57.83 186.27 C 56.98 185.73 56.41 183.95 55.24 184.40 M 362.25 225.36 C 353.94 227.16 345.63 228.92 337.24 230.25 C 334.68 232.41 335.34 236.70 335.12 239.78 C 343.74 242.94 351.06 249.31 359.81 251.92 C 362.44 249.09 361.51 243.88 358.25 241.71 C 358.28 238.66 358.47 233.58 362.73 233.70 C 362.83 231.22 365.85 226.08 362.25 225.36 M 57.32 234.33 C 55.37 235.30 53.19 236.01 51.75 237.75 C 46.12 241.76 46.81 251.02 51.71 255.28 C 51.85 257.45 49.73 260.31 52.20 261.88 C 56.88 262.21 61.41 260.76 65.94 259.81 C 65.88 255.77 65.37 251.35 62.83 248.06 C 60.49 248.00 58.56 249.62 57.61 251.67 C 55.11 252.69 54.74 247.93 55.15 246.21 C 58.18 242.67 63.54 242.68 67.77 243.12 C 70.60 244.93 68.49 248.90 67.42 251.31 C 67.13 254.16 66.73 259.48 70.95 257.96 C 77.72 254.82 77.29 244.89 73.86 239.17 C 70.77 233.26 63.02 233.36 57.32 234.33 M 382.14 238.11 C 375.90 274.07 357.44 307.87 330.76 332.76 C 300.47 362.76 258.68 379.95 216.35 382.60 C 207.24 384.07 198.11 382.02 188.99 381.87 C 148.29 378.27 108.44 360.58 79.75 331.25 C 55.13 308.02 38.35 276.94 31.08 243.98 C 30.08 241.22 29.59 244.74 30.21 245.92 C 38.69 290.19 62.34 332.08 98.26 359.73 C 128.15 384.22 166.65 396.73 205.00 398.04 C 226.09 396.94 247.58 394.31 267.32 386.39 C 291.36 377.71 313.07 363.12 331.28 345.27 C 357.84 318.10 376.05 282.84 382.54 245.36 C 382.59 243.45 385.36 236.95 382.14 238.11 M 335.30 252.30 C 332.97 252.84 331.78 254.92 330.95 256.98 C 329.31 262.20 326.72 267.39 326.04 272.84 C 333.92 276.40 342.47 278.71 350.85 280.96 C 352.31 278.68 353.24 275.88 352.94 273.15 C 350.86 271.64 348.00 271.64 346.10 269.83 C 345.96 268.20 345.54 266.12 347.19 265.11 C 350.04 264.74 352.91 265.92 355.79 265.90 C 356.80 263.05 358.31 260.20 357.99 257.08 C 354.03 255.96 350.02 256.26 346.02 256.71 C 342.38 255.14 340.08 250.17 335.30 252.30 M 77.97 261.21 C 70.24 264.29 62.79 268.02 55.09 271.20 C 55.98 277.38 59.81 283.08 62.00 288.99 C 62.75 293.04 67.03 290.19 68.95 288.83 C 68.19 285.39 66.28 282.25 65.07 278.93 C 64.54 277.34 66.03 275.45 67.72 276.16 C 69.14 279.15 70.51 282.15 72.10 285.05 C 73.91 284.91 75.50 283.87 76.92 282.83 C 77.10 279.33 74.27 276.49 73.94 273.00 C 79.42 271.95 78.69 279.86 81.19 282.93 C 83.12 282.36 86.65 282.34 86.98 279.96 C 85.84 275.36 83.00 271.21 81.46 266.66 C 80.45 264.97 80.28 261.01 77.97 261.21 M 322.34 278.25 C 321.20 280.72 316.98 284.15 320.74 286.26 C 328.00 289.85 335.22 294.26 342.83 296.95 C 344.16 294.54 346.28 292.08 345.93 289.17 C 338.86 284.99 331.24 281.75 323.92 278.05 C 323.52 278.10 322.74 278.20 322.34 278.25 M 88.24 284.36 C 81.15 288.43 74.89 293.72 68.01 298.12 C 67.54 300.83 70.00 302.73 71.21 304.88 C 74.77 305.64 77.23 301.37 80.80 302.10 C 82.80 304.95 81.94 308.09 78.74 309.72 C 74.61 312.33 78.98 316.64 81.21 318.86 C 84.60 316.37 89.85 314.14 89.18 309.13 C 94.20 310.28 100.59 306.62 99.97 301.06 C 97.39 294.75 92.81 289.53 88.85 284.08 L 88.24 284.36 M 315.20 290.10 C 312.39 296.20 305.60 300.29 304.11 306.78 C 311.16 311.58 317.51 317.39 324.81 321.86 C 328.99 317.63 332.46 312.75 336.02 308.01 C 338.70 305.33 335.11 301.03 332.21 301.15 C 329.49 304.22 327.45 307.83 324.90 311.04 C 320.29 308.82 325.41 303.82 327.78 301.76 C 327.36 299.27 325.33 297.70 323.04 296.99 C 319.91 298.87 319.46 304.96 314.94 304.01 C 315.41 299.91 319.45 297.57 321.00 293.95 C 321.47 291.13 317.48 289.78 315.20 290.10 M 300.98 310.02 C 298.48 311.46 296.19 313.18 294.14 315.19 C 293.46 320.64 298.42 324.79 299.05 330.07 C 294.26 328.85 291.01 323.67 286.06 323.00 C 283.51 324.55 280.95 326.85 278.97 329.03 C 283.21 336.39 290.46 341.74 295.23 348.85 C 297.44 349.10 299.32 347.21 300.84 345.79 C 302.82 340.63 295.06 339.45 294.94 334.97 C 298.43 336.76 301.49 339.34 305.05 341.00 C 306.79 341.42 307.76 339.79 308.81 338.76 C 309.86 334.38 305.50 331.09 304.95 326.91 C 307.23 328.27 308.80 330.47 310.71 332.27 C 312.89 336.64 319.08 331.63 317.74 328.29 C 312.16 322.32 306.96 315.17 300.98 310.02 M 108.31 311.33 C 100.95 315.03 93.62 318.81 86.12 322.23 C 85.45 325.94 90.52 329.83 94.03 328.26 C 96.47 328.48 97.70 331.77 99.65 333.11 C 98.93 335.23 98.74 337.61 101.18 338.83 C 102.47 339.57 104.59 343.80 105.71 340.73 C 108.95 333.35 112.74 326.22 115.68 318.70 C 116.35 317.45 115.95 315.96 114.80 315.19 C 112.93 313.84 111.10 309.86 108.31 311.33 M 124.19 325.10 C 119.99 332.37 113.44 339.00 110.99 346.89 C 116.27 350.28 121.41 354.08 127.00 356.95 C 128.88 356.20 130.60 353.27 130.88 351.22 C 127.88 349.19 124.91 347.09 122.01 344.92 C 125.21 339.64 129.38 334.90 131.83 329.20 C 129.77 327.21 127.36 324.47 124.19 325.10 M 264.93 336.11 C 263.44 336.85 260.46 338.35 258.97 339.10 C 259.66 344.81 264.50 349.24 266.41 354.65 C 269.10 357.33 268.74 364.78 274.65 361.60 C 279.09 359.04 283.57 356.54 287.94 353.85 C 288.85 350.95 286.79 348.90 284.79 347.19 C 281.35 348.19 278.63 351.41 275.18 351.90 C 271.69 346.87 269.60 340.91 265.83 336.08 L 264.93 336.11 M 144.17 337.07 C 140.59 344.70 136.89 352.71 134.96 360.92 C 141.29 363.35 147.51 368.30 154.70 366.73 C 161.41 363.60 165.52 355.61 163.73 348.30 C 161.96 344.20 157.98 341.53 153.86 340.18 C 150.67 339.09 147.64 336.93 144.17 337.07 M 246.31 343.36 C 244.27 344.05 242.23 344.71 240.15 345.25 C 239.96 354.52 238.66 363.74 239.02 373.02 C 240.53 371.48 247.60 374.04 247.01 369.98 C 246.72 366.24 251.49 366.91 253.94 366.03 C 256.74 369.07 260.47 367.38 263.95 366.79 C 263.96 365.45 264.39 363.77 263.23 362.76 C 257.56 356.45 253.98 348.04 247.01 343.14 L 246.31 343.36 M 175.30 348.28 C 169.94 350.81 165.88 356.96 166.98 362.99 C 165.61 373.20 178.85 379.16 187.04 375.02 C 193.03 373.21 194.16 366.28 194.97 361.00 C 194.29 351.65 184.02 345.92 175.30 348.28 M 219.35 349.58 C 216.10 350.73 211.67 348.52 209.15 351.19 C 210.27 359.36 211.08 367.57 212.21 375.74 C 214.02 378.54 218.25 376.84 220.92 375.82 C 221.41 373.52 219.93 371.44 220.06 369.18 C 222.65 366.87 226.64 367.78 229.78 366.72 C 231.64 364.91 234.61 363.05 234.02 360.03 C 235.65 351.95 226.30 346.41 219.35 349.58 Z" />
<path fill="#ffffff" stroke="#ffffff" stroke-width="0.09375" opacity="1.00" d=" M 172.98 50.99 C 181.25 46.92 183.84 61.08 176.94 62.99 C 175.71 63.26 174.82 62.85 174.27 61.75 C 173.49 58.22 172.97 54.61 172.98 50.99 Z" />
<path fill="#ffffff" stroke="#ffffff" stroke-width="0.09375" opacity="1.00" d=" M 132.28 66.29 C 135.43 65.80 138.07 69.24 139.02 71.97 C 142.45 75.91 137.22 80.67 133.24 79.82 C 130.75 77.77 129.22 74.85 128.02 71.92 C 127.16 68.99 130.02 67.30 132.28 66.29 Z" />
<path fill="#ffffff" stroke="#ffffff" stroke-width="0.09375" opacity="1.00" d=" M 106.22 85.37 C 107.37 84.94 108.54 86.87 108.89 87.86 C 107.72 88.86 105.37 90.85 104.20 91.85 C 100.34 89.76 102.98 86.16 106.22 85.37 Z" />
<path fill="#ffffff" stroke="#ffffff" stroke-width="0.09375" opacity="1.00" d=" M 337.34 126.40 C 340.29 124.59 344.58 127.97 341.89 131.79 C 339.29 133.52 336.48 135.83 333.25 135.77 C 331.77 134.24 329.19 132.79 330.15 130.26 C 332.58 129.04 335.00 127.80 337.34 126.40 Z" />
<path fill="#ffffff" stroke="#ffffff" stroke-width="0.09375" opacity="1.00" d=" M 348.33 156.40 C 352.52 153.84 354.79 158.05 355.99 161.00 C 354.41 166.10 346.84 167.19 342.66 165.33 C 339.69 160.65 344.05 156.81 348.33 156.40 Z" />
<path fill="#ffffff" stroke="#ffffff" stroke-width="0.09375" opacity="1.00" d=" M 293.17 169.10 C 297.85 167.30 299.88 173.41 299.02 177.01 C 300.62 182.13 295.53 188.97 290.02 188.01 C 289.80 181.68 289.02 174.46 293.17 169.10 Z" />
<path fill="#ffffff" stroke="#ffffff" stroke-width="0.09375" opacity="1.00" d=" M 346.87 236.08 C 349.53 236.17 354.44 234.62 352.98 239.00 C 350.33 239.59 348.08 238.47 346.87 236.08 Z" />
<path fill="#ffffff" stroke="#ffffff" stroke-width="0.09375" opacity="1.00" d=" M 337.17 261.11 C 342.88 258.22 339.78 271.62 336.18 266.80 C 334.33 265.42 336.18 262.62 337.17 261.11 Z" />
<path fill="#ffffff" stroke="#ffffff" stroke-width="0.09375" opacity="1.00" d=" M 86.00 296.00 C 90.10 294.59 91.51 298.67 91.00 302.03 C 87.49 302.78 85.13 299.18 86.00 296.00 Z" />
<path fill="#ffffff" stroke="#ffffff" stroke-width="0.09375" opacity="1.00" d=" M 103.23 322.21 C 106.55 320.85 104.44 325.39 103.81 326.91 C 100.26 327.60 100.62 323.24 103.23 322.21 Z" />
<path fill="#ffffff" stroke="#ffffff" stroke-width="0.09375" opacity="1.00" d=" M 150.08 346.97 C 155.94 346.13 155.80 353.57 153.03 357.01 C 152.28 360.69 145.09 359.97 146.08 356.06 C 147.11 352.91 148.45 349.86 150.08 346.97 Z" />
<path fill="#ffffff" stroke="#ffffff" stroke-width="0.09375" opacity="1.00" d=" M 179.21 355.16 C 182.20 354.02 184.92 356.56 185.99 359.06 C 185.55 363.19 184.78 369.92 179.06 368.99 C 173.60 366.98 175.33 358.24 179.21 355.16 Z" />
<path fill="#ffffff" stroke="#ffffff" stroke-width="0.09375" opacity="1.00" d=" M 247.05 354.87 C 248.50 356.27 251.29 357.43 250.90 359.80 C 250.05 361.18 248.42 361.01 247.02 361.04 C 247.03 359.50 247.04 356.42 247.05 354.87 Z" />
<path fill="#ffffff" stroke="#ffffff" stroke-width="0.09375" opacity="1.00" d=" M 221.29 356.30 C 224.19 354.44 228.45 360.52 223.68 360.64 C 218.23 365.54 217.24 356.22 221.29 356.30 Z" />
</svg>
